<svg width="16" height="12" viewBox="0 0 16 12" fill="none" xmlns="http://www.w3.org/2000/svg">
<path d="M3.73335 8.93335C3.29154 8.93335 2.93335 9.29154 2.93335 9.73335C2.93335 10.1752 3.29151 10.5333 3.73335 10.5333C4.17519 10.5333 4.53335 10.1752 4.53335 9.73335C4.53285 9.29172 4.17497 8.93382 3.73335 8.93335ZM3.73335 10C3.58607 10 3.46669 9.88063 3.46669 9.73335C3.46669 9.58607 3.58607 9.46669 3.73335 9.46669C3.88063 9.46669 4.00001 9.58607 4.00001 9.73335C3.99985 9.88057 3.88057 9.99985 3.73335 10Z" fill="#956D84"/>
<path d="M12.2666 8.93335C11.8248 8.93335 11.4666 9.29154 11.4666 9.73335C11.4666 10.1752 11.8248 10.5333 12.2666 10.5333C12.7085 10.5333 13.0666 10.1752 13.0666 9.73335C13.0662 9.29172 12.7083 8.93382 12.2666 8.93335ZM12.2666 10C12.1194 10 12 9.88063 12 9.73335C12 9.58607 12.1194 9.46669 12.2666 9.46669C12.4139 9.46669 12.5333 9.58607 12.5333 9.73335C12.5332 9.88057 12.4139 9.99985 12.2666 10Z" fill="#956D84"/>
<path d="M15.7968 5.1374L13.9598 3.06865C13.8076 2.89728 13.5892 2.79943 13.36 2.7999H10.9333V1.1999C10.9329 0.758277 10.575 0.400371 10.1333 0.399902H0.8C0.358375 0.400371 0.000468776 0.758277 2.60427e-08 1.1999V8.13325C-3.1224e-05 8.20397 0.0280625 8.27181 0.0780938 8.32184C0.128094 8.37184 0.195938 8.39993 0.266688 8.39993H0.533344V9.19993C0.533812 9.64156 0.891719 9.99947 1.33334 9.99993H1.88797C2.01941 10.9181 2.80584 11.5999 3.73334 11.5999C4.66084 11.5999 5.44728 10.9181 5.57872 9.99993H10.4213C10.5528 10.9181 11.3392 11.5999 12.2667 11.5999C13.1942 11.5999 13.9807 10.9181 14.1121 9.99993H15.2C15.6416 9.99947 15.9995 9.64156 16 9.19993V5.66918C15.9998 5.47297 15.9275 5.28372 15.7968 5.1374ZM0.533344 7.86656V1.1999C0.5335 1.05268 0.652781 0.933371 0.8 0.933246H10.1333C10.2806 0.933402 10.3999 1.05268 10.4 1.1999V7.86656H0.533344ZM1.88797 9.46656H1.33334C1.18613 9.4664 1.06681 9.34712 1.06669 9.1999V8.3999H2.4295C2.13656 8.68622 1.94622 9.06112 1.88797 9.46656ZM3.73334 11.0666C2.99697 11.0666 2.4 10.4696 2.4 9.73322C2.4 8.99684 2.99697 8.3999 3.73334 8.3999C4.46972 8.3999 5.06669 8.99687 5.06669 9.73325C5.06581 10.4692 4.46934 11.0657 3.73334 11.0666ZM6.4 9.46656H5.57869C5.52044 9.06112 5.33012 8.68618 5.03719 8.3999H6.4V9.46656ZM8.8 9.46656H6.93334V8.3999H8.8V9.46656ZM10.4213 9.46656H9.33334V8.3999H10.9628C10.6699 8.68622 10.4796 9.06112 10.4213 9.46656ZM12.2667 11.0666C11.5303 11.0666 10.9333 10.4696 10.9333 9.73322C10.9333 8.99684 11.5302 8.39987 12.2667 8.39987C13.003 8.39987 13.6 8.99684 13.6 9.73322C13.5991 10.4692 13.0027 11.0657 12.2667 11.0666ZM15.4667 9.1999C15.4665 9.34712 15.3472 9.46643 15.2 9.46656H14.112C13.9791 8.54928 13.1936 7.86822 12.2667 7.86656H10.9333V3.33325H12V5.9999C12.0005 6.44153 12.3584 6.79943 12.8 6.7999H15.4667V9.1999ZM15.4667 6.26656H12.8C12.6528 6.2664 12.5335 6.14712 12.5333 5.9999V3.33325H13.36C13.4366 3.33281 13.5097 3.36525 13.5607 3.42231L15.3983 5.49184C15.4421 5.54059 15.4664 5.60368 15.4667 5.66918V6.26656H15.4667Z" fill="#956D84"/>
</svg>
