<svg width="46" height="46" viewBox="0 0 46 46" fill="none" xmlns="http://www.w3.org/2000/svg">
<path d="M12.9656 13.8332H13.8622C13.5183 13.3621 13.228 12.8501 12.9911 12.3076C12.5633 11.317 12.3265 10.2321 12.3265 9.09367C12.3265 8.10035 12.5073 7.1428 12.8409 6.25658C13.1848 5.33721 13.689 4.49924 14.3206 3.77599C14.5651 3.49586 14.9904 3.46774 15.268 3.71229C15.5482 3.95685 15.5762 4.37956 15.3317 4.6597C14.8045 5.26327 14.3843 5.96117 14.099 6.7252C13.824 7.4586 13.6737 8.25578 13.6737 9.09367C13.6737 10.0513 13.8698 10.9578 14.2238 11.7754C14.5574 12.5446 15.0336 13.2424 15.6168 13.8332H25.2208C25.8039 13.2424 26.2802 12.5446 26.6138 11.7754C26.9678 10.9578 27.1639 10.0513 27.1639 9.09367C27.1639 7.23192 26.41 5.5434 25.1876 4.3235C23.9676 3.10369 22.2817 2.3473 20.4174 2.3473C19.903 2.3473 19.4063 2.40327 18.9352 2.50767C18.4513 2.61719 17.9802 2.78016 17.5344 2.99157C17.1982 3.15203 16.7984 3.00693 16.6405 2.67073C16.48 2.33454 16.6252 1.93473 16.9614 1.77688C17.4886 1.52729 18.054 1.33116 18.6474 1.19873C19.2231 1.06882 19.8164 1 20.4174 1C22.6536 1 24.6757 1.9067 26.1426 3.37107C26.8532 4.08164 27.4313 4.92464 27.8388 5.85938C28.1724 5.09535 28.6206 4.39232 29.1606 3.77608C29.4051 3.49595 29.8304 3.46783 30.108 3.71238C30.3881 3.95694 30.4162 4.37965 30.1716 4.65979C29.6444 5.26336 29.2242 5.96126 28.9364 6.72529C28.6613 7.45869 28.5111 8.25587 28.5111 9.09375C28.5111 10.0514 28.7098 10.9579 29.0638 11.7755C29.3974 12.5447 29.8711 13.2425 30.4569 13.8333H40.0582C40.644 13.2425 41.1202 12.5447 41.4538 11.7755C41.8078 10.9579 42.0039 10.0514 42.0039 9.09375C42.0039 7.23201 41.2475 5.54349 40.0276 4.32359C38.8077 3.10378 37.1218 2.34739 35.2576 2.34739C34.7406 2.34739 34.2465 2.40336 33.7753 2.50776C33.2914 2.61728 32.8203 2.78025 32.3746 2.99166C32.0384 3.15212 31.6386 3.00702 31.4781 2.67082C31.3202 2.33463 31.4653 1.93482 31.799 1.77697C32.3287 1.52738 32.8941 1.33125 33.485 1.19882C34.0632 1.06891 34.6566 1.00009 35.2576 1.00009C37.4937 1.00009 39.5158 1.90679 40.9802 3.37116C42.4445 4.83561 43.3512 6.86024 43.3512 9.09384C43.3512 10.2323 43.1144 11.3172 42.684 12.3078C42.4496 12.8503 42.1568 13.3622 41.8155 13.8334H42.7094C43.6161 13.8334 44.4387 14.2052 45.0346 14.8012C45.6307 15.3969 46 16.2194 46 17.1236V34.653C46 35.5598 45.6307 36.3823 45.0347 36.9783C44.4388 37.5742 43.6162 37.9435 42.7095 37.9435H37.9394L36.335 43.5592C36.2535 43.8495 35.9886 44.0481 35.6881 44.0481H19.9897C19.6714 44.0481 19.4039 43.8265 19.3327 43.5286L17.7384 37.9435H12.9656C12.0615 37.9435 11.2389 37.5742 10.643 36.9783C10.047 36.3823 9.67527 35.5597 9.67527 34.653V30.7488H7.36018V32.0807C7.36018 32.4068 7.12838 32.6819 6.8177 32.743L0.860793 34.4697C0.435563 34.5946 0 34.2711 0 33.8255V27.4151C0 27.0433 0.303043 26.7402 0.674906 26.7402C1.04668 26.7402 1.34721 27.0433 1.34721 27.4151V32.9315L6.01297 31.5765C6.01297 27.7844 6.01297 23.9922 6.01297 20.2001L1.34721 18.8477V24.3615C1.34721 24.736 1.04668 25.0364 0.674906 25.0364C0.303043 25.0364 0 24.7359 0 24.3615V17.9514C0 17.4751 0.481383 17.1542 0.916855 17.3248L6.87377 19.0515C7.16154 19.1356 7.36018 19.3978 7.36018 19.6959V21.0279H9.67518V17.1236C9.67518 16.2194 10.047 15.3969 10.6429 14.801C11.239 14.2025 12.0615 13.8332 12.9656 13.8332ZM35.2577 5.74456C36.1821 5.74456 37.02 6.11894 37.6262 6.72511C38.2323 7.3312 38.6067 8.16908 38.6067 9.09358C38.6067 10.018 38.2323 10.856 37.6262 11.462C37.02 12.0682 36.1821 12.4426 35.2577 12.4426C34.3332 12.4426 33.4953 12.0682 32.8892 11.462C32.283 10.856 31.9086 10.0181 31.9086 9.09358C31.9086 8.16908 32.283 7.3312 32.8892 6.72511C33.4953 6.11894 34.3332 5.74456 35.2577 5.74456ZM36.6737 7.67764C36.3121 7.31602 35.8103 7.09186 35.2577 7.09186C34.705 7.09186 34.2059 7.31593 33.8416 7.67764C33.48 8.04177 33.2558 8.54095 33.2558 9.09367C33.2558 9.64629 33.4799 10.1481 33.8416 10.5096C34.2059 10.8712 34.7049 11.0955 35.2577 11.0955C35.8103 11.0955 36.3121 10.8713 36.6737 10.5096C37.0353 10.1481 37.2595 9.64629 37.2595 9.09367C37.2595 8.54095 37.0353 8.04177 36.6737 7.67764ZM20.4175 5.74456C21.3445 5.74456 22.1799 6.11894 22.7861 6.72511C23.3922 7.3312 23.7665 8.16908 23.7665 9.09358C23.7665 10.018 23.3922 10.856 22.7861 11.462C22.1799 12.0682 21.3446 12.4426 20.4175 12.4426C19.493 12.4426 18.6578 12.0682 18.0516 11.462C17.4454 10.856 17.0685 10.0181 17.0685 9.09358C17.0685 8.16908 17.4455 7.3312 18.0516 6.72511C18.6578 6.11894 19.493 5.74456 20.4175 5.74456ZM21.8336 7.67764C21.472 7.31602 20.9728 7.09186 20.4176 7.09186C19.865 7.09186 19.3658 7.31593 19.0042 7.67764C18.6426 8.04177 18.4184 8.54095 18.4184 9.09367C18.4184 9.64629 18.6425 10.1481 19.0042 10.5096C19.3658 10.8712 19.865 11.0955 20.4176 11.0955C20.9703 11.0955 21.472 10.8713 21.8336 10.5096C22.1953 10.1481 22.4194 9.64629 22.4194 9.09367C22.4193 8.54095 22.1952 8.04177 21.8336 7.67764ZM23.028 27.8456C23.2929 28.1078 23.2929 28.5358 23.028 28.7981C22.7657 29.0604 22.3379 29.0604 22.0755 28.7981L20.145 26.8675C19.1747 25.8972 18.6908 24.6214 18.6908 23.3453C18.6908 22.0694 19.1747 20.791 20.145 19.8231C21.0823 18.8858 22.3429 18.3689 23.6673 18.3689C24.9432 18.3689 26.2192 18.8528 27.1895 19.8231L27.839 20.4726L28.4884 19.8231C29.4562 18.8528 30.7346 18.3689 32.0106 18.3689C33.2866 18.3689 34.5624 18.8528 35.5328 19.8231C36.4675 20.7578 36.9871 22.0209 36.9871 23.3453C36.9871 24.6214 36.5006 25.8997 35.5328 26.8675L28.3152 34.0826C28.0529 34.3475 27.6251 34.3475 27.3627 34.0826L24.2353 30.9552C23.9704 30.6929 23.9704 30.2676 24.2353 30.0026C24.4976 29.7404 24.9254 29.7404 25.1878 30.0026L27.839 32.6538L34.5803 25.9125C35.2629 25.23 35.6398 24.3106 35.6398 23.3453C35.6398 22.4133 35.2857 21.4811 34.5803 20.7756C33.8724 20.0701 32.9427 19.7162 32.0106 19.7162C31.0785 19.7162 30.1464 20.0701 29.4409 20.7756L28.3152 21.9013C28.0528 22.1636 27.625 22.1636 27.3626 21.9013L26.237 20.7756C25.5544 20.0931 24.6325 19.7136 23.6673 19.7136C22.7377 19.7136 21.8056 20.0676 21.0976 20.7756C20.3921 21.4811 20.0381 22.4133 20.0381 23.3453C20.0381 24.2774 20.3921 25.2071 21.0976 25.915L23.028 27.8456ZM9.67527 29.4017V22.3776H7.36018V29.4017H9.67527ZM27.8389 12.323C27.6046 12.8603 27.3143 13.3672 26.9756 13.8332H28.6998C28.3635 13.3671 28.0732 12.8603 27.8389 12.323ZM36.5387 37.9436H19.1365L20.4965 42.701H35.1787L36.5387 37.9436ZM42.7095 15.1805C32.7949 15.1805 22.8803 15.1805 12.9656 15.1805C12.4334 15.1805 11.947 15.3995 11.5955 15.7535C11.2415 16.1049 11.0225 16.5913 11.0225 17.1237V34.6531C11.0225 35.188 11.2415 35.6719 11.5955 36.026C11.947 36.3773 12.4334 36.5965 12.9656 36.5965H42.7095C43.2443 36.5965 43.7307 36.3774 44.0822 36.026C44.4338 35.6719 44.6527 35.188 44.6527 34.6531V17.1237C44.6527 16.5914 44.4337 16.105 44.0822 15.7535C43.7308 15.3994 43.2444 15.1805 42.7095 15.1805Z" fill="#AA8A9D"/>
</svg>
