<svg width="22" height="20" viewBox="0 0 22 20" fill="none" xmlns="http://www.w3.org/2000/svg">
<path d="M6.9949 12.7059H6.99589C6.99672 12.7059 6.99755 12.7058 6.99838 12.7058H18.5303C18.8142 12.7058 19.0638 12.5177 19.1418 12.245L21.686 3.35098C21.7408 3.15924 21.7024 2.9531 21.5823 2.79394C21.4621 2.63479 21.2741 2.54115 21.0745 2.54115H5.52801L5.07333 0.497477C5.00857 0.2068 4.7505 0 4.45235 0H0.636051C0.284732 0 0 0.284391 0 0.635288C0 0.986186 0.284732 1.27058 0.636051 1.27058H3.94219C4.02269 1.63272 6.11801 11.0505 6.2386 11.5924C5.56263 11.8858 5.0884 12.559 5.0884 13.3411C5.0884 14.3919 5.94442 15.2469 6.99656 15.2469H18.5303C18.8816 15.2469 19.1663 14.9625 19.1663 14.6116C19.1663 14.2607 18.8816 13.9763 18.5303 13.9763H6.99656C6.6459 13.9763 6.36051 13.6913 6.36051 13.3411C6.36051 12.9913 6.64491 12.7068 6.9949 12.7059ZM20.2312 3.81173L18.0504 11.4352H7.50672L5.81059 3.81173H20.2312Z" fill="white"/>
<path d="M6.36035 17.1528C6.36035 18.2037 7.21637 19.0587 8.2685 19.0587C9.32064 19.0587 10.1767 18.2037 10.1767 17.1528C10.1767 16.1019 9.32064 15.2469 8.2685 15.2469C7.21637 15.2469 6.36035 16.1019 6.36035 17.1528ZM8.2685 16.5175C8.61916 16.5175 8.90455 16.8026 8.90455 17.1528C8.90455 17.503 8.61916 17.7881 8.2685 17.7881C7.91785 17.7881 7.63245 17.503 7.63245 17.1528C7.63245 16.8026 7.91785 16.5175 8.2685 16.5175Z" fill="white"/>
<path d="M15.3501 17.1528C15.3501 18.2037 16.2061 19.0587 17.2582 19.0587C18.3104 19.0587 19.1664 18.2037 19.1664 17.1528C19.1664 16.1019 18.3104 15.2469 17.2582 15.2469C16.2061 15.2469 15.3501 16.1019 15.3501 17.1528ZM17.2582 16.5175C17.6089 16.5175 17.8943 16.8026 17.8943 17.1528C17.8943 17.503 17.6089 17.7881 17.2582 17.7881C16.9076 17.7881 16.6222 17.503 16.6222 17.1528C16.6222 16.8026 16.9076 16.5175 17.2582 16.5175Z" fill="white"/>
</svg>
