<svg width="15" height="16" viewBox="0 0 15 16" fill="none" xmlns="http://www.w3.org/2000/svg">
<path d="M7.64404 0.778518C4.64973 0.778518 1.80633 0.517472 0.72026 3.24916C0.271649 4.3774 0.336796 5.84265 0.336796 7.94072C0.336796 9.78178 0.276597 11.5121 0.72026 12.6315C1.80385 15.3648 4.67034 15.1029 7.64239 15.1029C10.5097 15.1029 13.4661 15.3955 14.5653 12.6315C15.0148 11.4919 14.9488 10.0485 14.9488 7.94072C14.9488 5.14276 15.1063 3.33645 13.7217 1.9803C12.3198 0.606373 10.4239 0.778518 7.64074 0.778518H7.64404ZM7.45849 1.9354C13.0002 1.9354 14.1877 1.54747 13.7918 10.8579C13.396 13.9613 10.7881 14.1251 7.64404 14.1251C2.13704 14.1251 1.36283 13.5734 1.24272 7.94072C1.10639 1.54747 3.10432 1.9354 7.45849 1.9354ZM11.5446 3.25805C11.0606 3.25805 10.668 3.64275 10.668 4.11716C10.668 4.59157 11.0606 4.97627 11.5446 4.97627C12.0287 4.97627 12.4213 4.59157 12.4213 4.11716C12.4213 3.64275 12.0287 3.25805 11.5446 3.25805ZM7.64404 4.26264C5.57169 4.26264 3.89187 5.90973 3.89187 7.94072C3.89187 9.97171 5.57169 11.618 7.64404 11.618C9.71639 11.618 11.3954 9.97171 11.3954 7.94072C11.3954 5.90973 9.71639 4.26264 7.64404 4.26264ZM7.64404 5.55332C10.8643 5.55332 10.8684 10.3281 7.64404 10.3281C4.4246 10.3281 4.41965 5.55332 7.64404 5.55332Z" fill="white"/>
</svg>
