<svg width="13" height="13" viewBox="0 0 13 13" fill="none" xmlns="http://www.w3.org/2000/svg">
<g clip-path="url(#clip0)">
<path d="M7.38265 12.8503H5.3542C5.01538 12.8503 4.73977 12.5746 4.73977 12.2358V7.66055H3.55633C3.21751 7.66055 2.94189 7.38484 2.94189 7.04612V5.08561C2.94189 4.74679 3.21751 4.47118 3.55633 4.47118H4.73977V3.48942C4.73977 2.51598 5.04544 1.68778 5.62363 1.09451C6.20443 0.49854 7.0161 0.183594 7.97089 0.183594L9.51789 0.186106C9.85613 0.186686 10.1313 0.462301 10.1313 0.800537V2.62083C10.1313 2.95965 9.85574 3.23526 9.51702 3.23526L8.47544 3.23565C8.15779 3.23565 8.0769 3.29933 8.05961 3.31885C8.0311 3.35123 7.99718 3.44274 7.99718 3.69546V4.47108H9.43874C9.54727 4.47108 9.65241 4.49785 9.74277 4.54829C9.93769 4.65721 10.0589 4.86314 10.0589 5.0857L10.0581 7.04622C10.0581 7.38484 9.78249 7.66046 9.44367 7.66046H7.99718V12.2358C7.99718 12.5746 7.72147 12.8503 7.38265 12.8503ZM5.48234 12.1077H7.25451V7.32812C7.25451 7.10188 7.4386 6.91788 7.66474 6.91788H9.31553L9.3162 5.21375H7.66464C7.43851 5.21375 7.25451 5.02975 7.25451 4.80352V3.69546C7.25451 3.40534 7.28398 3.07542 7.50297 2.82744C7.76756 2.52767 8.18456 2.49307 8.47525 2.49307L9.38868 2.49269V0.928487L7.97031 0.926168C6.43588 0.926168 5.48234 1.90841 5.48234 3.48942V4.80352C5.48234 5.02965 5.29834 5.21375 5.0722 5.21375H3.68447V6.91788H5.0722C5.29834 6.91788 5.48234 7.10188 5.48234 7.32812V12.1077ZM9.51644 0.92868H9.51654H9.51644Z" fill="white"/>
</g>
<defs>
<clipPath id="clip0">
<rect width="12.6419" height="12.6667" fill="white" transform="translate(0.208252 0.208374)"/>
</clipPath>
</defs>
</svg>
