<?xml version="1.0" encoding="utf-8"?>
<!-- Generator: Adobe Illustrator 24.0.0, SVG Export Plug-In . SVG Version: 6.00 Build 0)  -->
<svg version="1.1" id="Layer_1" xmlns="http://www.w3.org/2000/svg" xmlns:xlink="http://www.w3.org/1999/xlink" x="0px" y="0px"
	 viewBox="0 0 512 512" style="enable-background:new 0 0 512 512;" xml:space="preserve">
<style type="text/css">
	.st0{fill:#FFFFFF;}
</style>
<g>
	<g>
		<g>
			<path class="st0" d="M496.6,300.4c2.6-14.5,4.3-29,4.3-43.5c0-134-109.2-243.2-243.2-243.2c-14.5,0-29,1.7-43.5,4.3
				C192.9,6,169,0,144.2,0C64.9,0,0,64.9,0,144.2c0,23.9,6,48.6,17.9,70c-2.6,14.5-4.3,29-4.3,43.5c0,134,109.2,243.2,243.2,243.2
				c14.5,0,29-1.7,43.5-4.3c18.8,10.2,41.8,15.4,70,15.4c79.4,0,141.7-62.3,141.7-141.7C512,342.2,506.9,319.1,496.6,300.4z
				 M370.3,494.9c-26.5,0-46.9-5.1-64-14.5l-2.6-1.7l-3.4,0.9c-14.5,2.6-29,4.3-43.5,4.3c-124.6,0-226.1-101.5-226.1-226.1
				c0-14.5,1.7-29,4.3-43.5l0.9-3.4l-1.7-2.6c-11.1-19.6-17.1-41.8-17.1-64c0-70,57.2-127.1,127.1-127.1c22.2,0,44.4,6,64,17.1
				l2.6,1.7l3.4-0.9c14.5-2.6,29-4.3,43.5-4.3c124.6,0,226.1,101.5,226.1,226.1c0,14.5-1.7,29-4.3,43.5l-0.9,3.4l1.7,2.6
				c9.4,17.1,14.5,37.5,14.5,64C494.9,440.3,440.3,494.9,370.3,494.9z"/>
			<path class="st0" d="M278.2,215c-64-12.8-73.4-29-74.2-33.3c-1.7-6,2.6-11.1,6.8-14.5c11.1-9.4,37.5-17.1,60.6-12.8
				c8.5,1.7,20.5,6,26.5,16.2c14.5,28.2,29.9,50.3,61.4,42.7c10.2-2.6,17.9-9.4,23-19.6c6-13.7,6-32.4-1.7-46.9
				c-8.5-16.2-45.2-58-116.9-58c-68.3,0-146.8,24.7-146.8,94.7c0,55.5,48.6,94.7,133.1,106.7c42.7,6,56.3,19.6,60.6,27.3
				c2.6,5.1,2.6,10.2,0.9,15.4c-6.8,16.2-29.9,31.6-65.7,28.2c-41-4.3-54.6-41-57.2-48.6c-6.8-21.3-29.9-24.7-41.8-23.9
				c-6,0.9-19.6,5.1-28.2,17.9c-5.1,7.7-10.2,22.2-2.6,44.4c9.4,29,41,76.8,145.9,76.8c87.9,0,140.8-55.5,141.7-106.7
				C403.6,264.5,365.2,232.1,278.2,215z M261.1,410.5c-70,0-116.1-23-129.7-64.9c-4.3-12.8-4.3-23,0.9-29.9s12.8-10.2,16.2-10.2
				c0,0,0.9,0,2.6,0c5.1,0,17.9,0.9,19.6,11.1c3.4,9.4,20.5,55.5,71.7,60.6c45.2,4.3,74.2-17.1,83.6-39.3
				c4.3-10.2,3.4-21.3-1.7-30.7c-6.8-12.8-25.6-29-72.5-35.8c-44.4-6.8-118.6-26.5-118.6-89.6c0-57.2,70-77.7,129.7-77.7
				c63.1,0,94.7,35,101.5,48.6c4.3,9.4,5.1,23,0.9,32.4c-2.6,6-6.8,9.4-11.9,10.2c-15.4,3.4-24.7,0-42.7-34.1
				c-6.8-12.8-20.5-21.3-38.4-24.7c-26.5-4.3-58.9,2.6-75.1,17.1c-10.2,9.4-14.5,20.5-11.9,31.6c6,20.5,34.1,35,87.9,45.2
				c98.1,19.6,111.8,55.5,111.8,88.7C384.9,363.5,338.8,410.5,261.1,410.5z"/>
		</g>
	</g>
</g>
</svg>
