<svg width="15" height="15" viewBox="0 0 15 15" fill="none" xmlns="http://www.w3.org/2000/svg">
<path d="M8.92831 0H6.07119C3.07868 0 0.644043 2.43406 0.644043 5.42601V7.99975C0.644043 10.2279 2.01318 12.2303 4.0719 13.0458V14.7143C4.0719 14.8275 4.13845 14.9297 4.24186 14.9754C4.279 14.992 4.31842 15 4.35755 15C4.42696 15 4.49581 14.9746 4.54922 14.926L6.20574 13.4258H8.92831C11.9208 13.4258 14.3555 10.9917 14.3555 7.99975V5.42601C14.3555 2.43406 11.9208 0 8.92831 0ZM13.7841 7.99975C13.7841 10.6766 11.606 12.8544 8.92831 12.8544H6.09547C6.02463 12.8544 5.95636 12.8807 5.9038 12.9284L4.6432 14.0702V12.8479C4.6432 12.7268 4.56694 12.6188 4.45267 12.5788C2.51651 11.8941 1.21535 10.0539 1.21535 7.99975V5.42601C1.21535 2.74914 3.39375 0.571309 6.07119 0.571309H8.92831C11.606 0.571309 13.7841 2.74914 13.7841 5.42601V7.99975Z" fill="white"/>
<path d="M11.275 8.71039L9.51938 7.57006C9.32742 7.44523 9.09889 7.40295 8.87523 7.44923C8.65127 7.49636 8.45874 7.62862 8.33391 7.82143L8.25136 7.94827C7.49152 7.69718 6.65369 7.37638 6.15208 5.9244L6.35975 5.74387C6.71625 5.43393 6.75367 4.89176 6.44374 4.53469L5.07031 2.95474C4.9669 2.83562 4.78637 2.82334 4.66725 2.92646L3.80486 3.67602C3.04845 4.33359 3.4018 5.30625 3.51806 5.62589C3.5232 5.64018 3.52949 5.65389 3.53691 5.66731C3.56691 5.72102 4.28304 6.99904 5.43966 8.17707C6.60084 9.35997 8.69726 10.4523 8.76154 10.484C9.00091 10.6394 9.27029 10.714 9.5368 10.714C10.0047 10.714 10.4635 10.4846 10.7371 10.0641L11.3593 9.10602C11.445 8.97319 11.4073 8.79637 11.275 8.71039ZM10.2578 9.75274C10.0004 10.1492 9.46853 10.2618 9.04862 9.99098C9.02777 9.98012 6.94506 8.89549 5.84729 7.77716C4.82122 6.73195 4.13993 5.57076 4.04709 5.4088C3.82086 4.77436 3.86085 4.38444 4.17964 4.10736L4.82664 3.54519L6.01268 4.90947C6.11809 5.03059 6.10581 5.2077 5.98526 5.31253L5.63476 5.61704C5.54935 5.69131 5.51564 5.80871 5.54907 5.91669C6.14665 7.85857 7.3087 8.23992 8.15709 8.51843L8.28078 8.55928C8.40447 8.60099 8.53987 8.55328 8.61071 8.44416L8.81324 8.13223C8.85494 8.06767 8.91893 8.02396 8.9932 8.00825C9.06776 7.99226 9.14374 8.00711 9.2083 8.0491L10.7246 9.03375L10.2578 9.75274Z" fill="white"/>
<path d="M8.15187 4.64095C7.99991 4.59724 7.84194 4.68551 7.79881 4.83748C7.75567 4.98916 7.84365 5.14713 7.99534 5.19026C8.42096 5.31138 8.76003 5.65102 8.88001 6.07693C8.91543 6.20262 9.02997 6.28518 9.1548 6.28518C9.18051 6.28518 9.20651 6.28175 9.2325 6.27461C9.38418 6.23176 9.47274 6.07408 9.42989 5.92211C9.2565 5.30681 8.7666 4.81577 8.15187 4.64095Z" fill="white"/>
<path d="M10.3256 6.34696C10.3513 6.34696 10.3773 6.34353 10.4033 6.33639C10.5553 6.29354 10.6435 6.13558 10.6007 5.98389C10.2636 4.789 9.31266 3.83606 8.11863 3.49613C7.96695 3.45242 7.80898 3.54126 7.76585 3.69294C7.72271 3.84463 7.81069 4.00259 7.96238 4.04573C8.96702 4.33138 9.76714 5.13378 10.0508 6.139C10.0865 6.26469 10.2008 6.34696 10.3256 6.34696Z" fill="white"/>
<path d="M7.99562 2.16585C7.84366 2.12214 7.68569 2.21041 7.64256 2.36266C7.59942 2.51435 7.6874 2.67231 7.83909 2.71545C9.5413 3.19963 10.8973 4.55878 11.3778 6.26213C11.4132 6.38782 11.5277 6.47038 11.6526 6.47038C11.6783 6.47038 11.7043 6.46695 11.7303 6.45981C11.882 6.41696 11.9705 6.25899 11.9277 6.10731C11.3938 4.21428 9.88723 2.70431 7.99562 2.16585Z" fill="white"/>
</svg>
